HIERARCHY
ROOT hip
{
	OFFSET	0.00  0.00  0.00 
	CHANNELS 6 Xposition Yposition Zposition Xrotation Zrotation Yrotation
	JOINT abdomen
	{
		OFFSET	0.000000 0.000000 0.000000
		CHANNELS 3 Xrotation Zrotation Yrotation
		JOINT chest
		{
			OFFSET	0.000000 5.018152 -1.882228
			CHANNELS 3 Xrotation Zrotation Yrotation
			JOINT neckDummy
			{
				OFFSET	0.000000 8.316447 0.784897
				CHANNELS 3 Xrotation Yrotation Zrotation
				JOINT neck
				{
					OFFSET	0.000000 2.280413 -0.392801
					CHANNELS 3 Xrotation Zrotation Yrotation
					JOINT head
					{
						OFFSET	0.000000 3.496879 0.529469
						CHANNELS 3 Xrotation Zrotation Yrotation
						JOINT figureHair
						{
							OFFSET	0.000000 4.699570 0.720622
							CHANNELS 3 Zrotation Yrotation Xrotation
							End Site
							{
								OFFSET 0.000000 -6.419331 0.000000
							}
						}
					}
				}
			}
			JOINT lCollar
			{
				OFFSET	0.599237 8.316447 0.784897
				CHANNELS 3 Yrotation Zrotation Xrotation
				JOINT lShldr
				{
					OFFSET	6.421198 0.010146 -0.332128
					CHANNELS 3 Zrotation Yrotation Xrotation
					JOINT lForeArm
					{
						OFFSET	10.552783 0.025574 0.125508
						CHANNELS 3 Yrotation Zrotation Xrotation
						JOINT lHand
						{
							OFFSET	11.035963 0.319619 0.041520
							CHANNELS 3 Zrotation Yrotation Xrotation
							End Site
							{
								OFFSET 10.353753 0.000000 0.000000
							}
						}
					}
				}
			}
			JOINT rCollar
			{
				OFFSET	-0.599237 8.316447 0.784897
				CHANNELS 3 Yrotation Zrotation Xrotation
				JOINT rShldr
				{
					OFFSET	-6.421198 0.010146 -0.332128
					CHANNELS 3 Zrotation Yrotation Xrotation
					JOINT rForeArm
					{
						OFFSET	-10.552783 0.025574 0.125508
						CHANNELS 3 Yrotation Zrotation Xrotation
						JOINT rHand
						{
							OFFSET	-11.035963 0.319619 0.041520
							CHANNELS 3 Zrotation Yrotation Xrotation
							End Site
							{
								OFFSET -10.353753 0.000000 0.000000
							}
						}
					}
				}
			}
		}
	}
	JOINT lThigh
	{
		OFFSET	4.500466 -6.400484 -1.832696
		CHANNELS 3 Xrotation Zrotation Yrotation
		JOINT lShin
		{
			OFFSET	-1.359117 -18.918689 1.179887
			CHANNELS 3 Xrotation Zrotation Yrotation
			JOINT lFoot
			{
				OFFSET	-0.652380 -17.215186 -0.312137
				CHANNELS 3 Xrotation Yrotation Zrotation
				End Site
				{
					OFFSET 0.000000 0.000000 10.353752
				}
			}
		}
	}
	JOINT rThigh
	{
		OFFSET	-4.500466 -6.400484 -1.832696
		CHANNELS 3 Xrotation Zrotation Yrotation
		JOINT rShin
		{
			OFFSET	1.359117 -18.918689 1.179887
			CHANNELS 3 Xrotation Zrotation Yrotation
			JOINT rFoot
			{
				OFFSET	0.652380 -17.215186 -0.312137
				CHANNELS 3 Xrotation Yrotation Zrotation
				End Site
				{
					OFFSET 0.000000 0.000000 10.353752
				}
			}
		}
	}
}
MOTION
Frames:     15
Frame Time: 0.066667
-9.889998 42.019997 6.059999 2.792970 16.894501 163.408005 7.988280 12.480500 -5.019530 0.000000 0.000000 0.000000 0.000000 0.000000 0.000000 -12.431600 -0.771484 16.386600 0.000000 0.000000 0.000000 0.000000 0.000000 0.000000 0.000000 0.000000 0.000000 -48.515099 -27.017500 55.958401 -107.950996 49.502499 54.616299 3.363350 -5.011080 -54.137299 0.000000 0.000000 0.000000 41.488899 42.912399 69.519501 132.363007 -40.999001 55.679901 13.406900 22.251699 -42.668999 -5.684302 34.196342 19.889954 34.720329 -4.484660 -5.676447 -13.493418 8.726757 -2.179609 -6.443693 10.145117 3.450198 15.398199 1.364049 3.541276 0.070938 11.425627 6.837080 
-9.949999 41.869995 6.010001 2.060550 17.685499 156.436005 7.968750 13.271500 -4.431350 0.000000 0.000000 0.000000 0.000000 0.000000 0.000000 -5.205080 -0.498047 21.171801 0.000000 0.000000 0.000000 0.000000 0.000000 0.000000 0.000000 0.000000 0.000000 -38.265499 -28.249001 67.076698 -111.941002 47.188801 62.796101 -18.009100 -11.669200 -25.879101 0.000000 0.000000 0.000000 59.286098 51.963402 69.915901 89.955498 -41.074699 30.765400 -0.364959 5.760910 -47.194698 -3.282896 35.133110 23.441902 37.129650 -5.138926 -3.213900 -15.479672 11.781131 0.952256 -8.161425 10.249551 3.880127 18.633570 1.200606 4.653728 -0.417887 16.557478 10.068198 
-10.389992 41.479996 5.960002 -1.582030 16.015600 150.003006 9.091800 11.601600 -1.873040 0.000000 0.000000 0.000000 0.000000 0.000000 0.000000 -16.191401 2.490230 22.207001 0.000000 0.000000 0.000000 0.000000 0.000000 0.000000 0.000000 0.000000 0.000000 -41.215900 -26.821699 51.963100 -111.142998 45.259899 61.196301 4.590510 0.767246 -41.475800 0.000000 0.000000 0.000000 46.695301 58.025501 83.031502 95.532700 -43.147999 42.804401 12.301900 18.827400 -18.677099 -4.778249 33.703506 25.795128 38.380585 -5.509380 -1.141738 -17.078468 13.925665 2.069814 -11.295842 9.889312 6.737294 17.409546 0.738788 4.659322 0.445656 19.399538 11.729017 
-11.009974 41.179996 6.449994 -4.921880 13.076200 146.809006 8.574220 10.507800 -3.289230 0.000000 0.000000 0.000000 0.000000 0.000000 0.000000 -24.550800 3.173830 24.375500 0.000000 0.000000 0.000000 0.000000 0.000000 0.000000 0.000000 0.000000 0.000000 -35.264702 -28.617399 63.715000 -101.833000 41.437599 59.160801 -15.394800 -1.194790 -9.678650 0.000000 0.000000 0.000000 54.435600 51.806999 77.608101 118.509003 -39.948700 44.032501 8.955480 21.550800 -57.726501 -7.698445 32.823124 29.721323 38.816841 -5.930217 0.199963 -16.731201 11.458021 -0.097149 -16.317547 9.130738 9.918379 16.725216 0.816789 2.933924 2.128132 20.647411 11.340403 
-11.249974 40.109997 6.310001 -7.441410 10.712900 147.022995 7.011720 9.638670 -6.445310 0.000000 0.000000 0.000000 0.000000 0.000000 0.000000 -23.144501 1.962890 27.324200 0.000000 0.000000 0.000000 0.000000 0.000000 0.000000 0.000000 0.000000 0.000000 -39.008301 -36.941200 67.509300 -124.931000 44.881302 68.002800 -19.257900 -25.166201 -36.728802 0.000000 0.000000 0.000000 54.426899 32.089802 63.787201 98.992203 -36.909698 36.649101 -2.725020 -7.653140 -46.118500 -14.424392 32.530720 26.520956 43.056969 -7.171529 3.288552 -17.686243 9.124120 -1.380326 -22.847015 8.854058 10.111210 22.370975 0.575280 3.849718 -0.102554 18.368864 11.011129 
-11.149958 38.479996 5.180003 -8.662110 7.275390 154.307999 4.960940 5.839840 -13.543700 0.000000 0.000000 0.000000 0.000000 0.000000 0.000000 -19.726601 2.412110 30.478500 0.000000 0.000000 0.000000 0.000000 0.000000 0.000000 0.000000 0.000000 0.000000 -40.117401 -35.356400 41.902100 -47.060600 50.916000 13.175200 10.096900 8.106970 -37.270302 0.000000 0.000000 0.000000 43.808800 10.356700 72.570801 74.062103 -40.869400 29.188000 4.616300 13.511200 -14.700000 -27.821541 29.022093 15.353565 54.855846 -8.109009 3.847553 -21.682011 8.385187 -3.811596 -35.020008 6.432076 8.318899 43.112747 -0.087549 6.431633 -11.918093 10.284789 9.327453 
-10.270002 37.349998 5.720003 -5.986330 3.652340 165.772003 5.419920 2.373050 -12.548400 0.000000 0.000000 0.000000 0.000000 0.000000 0.000000 -21.005899 -1.796880 24.286800 0.000000 0.000000 0.000000 0.000000 0.000000 0.000000 0.000000 0.000000 0.000000 -34.081001 -15.355800 42.347301 -19.577200 27.799500 1.182720 -6.111270 13.338300 -50.605999 0.000000 0.000000 0.000000 36.723801 1.603820 52.316399 48.860600 -24.209000 25.315001 -4.201120 19.330000 -18.092800 -34.784565 22.216394 9.039715 61.703941 -5.120988 -0.779493 -25.041336 8.884593 -5.660222 -41.560513 0.243927 1.973783 58.748322 -2.084750 6.778829 -22.335003 6.745077 7.485161 
-9.140003 37.810005 4.700003 -6.835940 5.517580 -168.201996 6.611330 -0.312494 -4.609520 0.000000 0.000000 0.000000 0.000000 0.000000 0.000000 -19.619101 -7.099610 -7.745350 0.000000 0.000000 0.000000 0.000000 0.000000 0.000000 0.000000 0.000000 0.000000 -21.150200 14.809500 20.191401 -23.450800 30.524300 6.415090 -0.950826 11.587600 -68.335297 0.000000 0.000000 0.000000 9.380130 18.309000 28.101801 42.776501 -29.628700 14.668400 -19.729200 21.722700 -29.438900 -40.093075 14.314563 -2.007443 51.469215 -0.738814 -8.421513 -17.613075 4.347250 -8.955310 -37.736340 -4.285847 -6.749169 59.391323 -0.234332 0.920345 -25.975061 -2.681897 6.149077 
-12.069992 39.029999 5.819999 -5.644530 10.341800 -120.535004 6.494140 -2.275390 3.486330 0.000000 0.000000 0.000000 0.000000 0.000000 0.000000 -8.623050 -8.144530 -42.636700 0.000000 0.000000 0.000000 0.000000 0.000000 0.000000 0.000000 0.000000 0.000000 9.418490 14.460500 1.954090 -50.989300 47.558800 23.805300 10.562600 -8.710850 -28.325899 0.000000 0.000000 0.000000 -30.275700 21.899799 -13.869600 48.121498 -40.651699 16.091600 -27.271700 15.201200 -31.313700 -37.481068 5.595760 -9.338951 22.002645 -4.314534 0.755974 -3.977370 3.160044 -13.054386 -26.788065 -2.077800 -12.305940 46.650589 0.507041 -2.745900 -12.285755 -0.981067 6.749810 
-13.259949 41.150002 7.769994 5.722660 8.916020 -49.217201 3.916020 -1.308590 6.279300 0.000000 0.000000 0.000000 0.000000 0.000000 0.000000 -5.859380 -5.771480 0.205078 0.000000 0.000000 0.000000 0.000000 0.000000 0.000000 0.000000 0.000000 0.000000 42.922600 2.991710 -17.962400 -79.472603 54.583099 43.660000 13.093900 -8.693760 -28.746901 0.000000 0.000000 0.000000 -46.260399 13.482500 -29.563900 69.311203 -46.570999 27.002399 -32.741901 4.910220 -38.527000 -30.794085 -1.612168 9.931655 14.374963 -4.890134 3.008088 -0.882034 1.031895 -6.163979 -19.283337 -1.209887 -14.311130 31.400644 -2.343324 1.613487 11.669790 0.058434 2.972495 
-11.210009 43.179996 8.199996 2.851560 0.371094 39.414101 14.130900 -2.705080 6.826170 0.000000 0.000000 0.000000 0.000000 0.000000 0.000000 -10.087900 0.664063 47.939602 0.000000 0.000000 0.000000 0.000000 0.000000 0.000000 0.000000 0.000000 0.000000 44.775002 19.392599 -33.995998 -73.059303 58.131100 34.224499 19.029301 -6.010780 -27.307501 0.000000 0.000000 0.000000 -42.150600 3.233820 -51.955101 75.992203 -51.957600 24.918800 -38.429501 -3.557200 -43.397301 -21.774990 2.792118 17.533369 17.155821 -6.748990 0.410658 18.223360 -1.348404 -1.844030 -10.523308 -3.619530 -19.673229 18.495071 -1.474492 4.245375 30.329151 -4.888986 2.204935 
-10.649975 44.919998 5.689997 6.914060 1.142580 124.814003 10.127000 -2.636720 10.282800 0.000000 0.000000 0.000000 0.000000 0.000000 0.000000 -4.082030 -5.312500 24.852600 0.000000 0.000000 0.000000 0.000000 0.000000 0.000000 0.000000 0.000000 0.000000 45.470402 8.734370 -32.924599 -60.433201 59.443100 24.347700 17.738701 -0.890106 -28.760900 0.000000 0.000000 0.000000 -48.488098 1.346090 -57.408501 80.083298 -47.955200 31.093000 -38.139801 -5.151200 -49.254299 -17.332197 3.378033 15.545331 15.834470 -5.862426 0.706164 19.259207 13.601031 1.214863 -6.822887 -3.024278 -17.402996 18.363407 -2.020550 3.686786 35.178059 -2.777434 3.693441 
-13.660018 45.650002 4.640003 3.134770 1.748050 -153.516006 7.900390 -3.603520 5.477900 0.000000 0.000000 0.000000 0.000000 0.000000 0.000000 -2.832030 -1.162110 -15.830300 0.000000 0.000000 0.000000 0.000000 0.000000 0.000000 0.000000 0.000000 0.000000 52.556099 2.771360 -38.770401 -63.091499 54.526299 27.875900 9.527580 -3.780660 -30.112101 0.000000 0.000000 0.000000 -47.018398 11.761100 -53.848999 80.929398 -45.735100 25.891800 -35.390800 -4.270120 -47.774200 -18.960445 5.417941 10.180535 16.394121 -4.609266 5.350859 14.599192 4.116307 0.995887 -7.349416 0.332534 -13.326984 17.022633 0.022773 3.964591 32.750504 -4.606418 5.280277 
-13.490009 46.039997 7.400003 1.435550 3.632810 -68.505898 9.121090 2.167970 -0.781250 0.000000 0.000000 0.000000 0.000000 0.000000 0.000000 -4.130860 1.308590 -0.566406 0.000000 0.000000 0.000000 0.000000 0.000000 0.000000 0.000000 0.000000 0.000000 56.801300 -1.420050 -40.413601 -69.376900 56.269901 29.816500 13.919600 -8.580690 -28.051201 0.000000 0.000000 0.000000 -46.532799 11.490900 -55.280102 78.758499 -47.982498 23.358900 -30.763201 -5.307860 -48.785198 -23.729979 0.673646 -0.172801 17.819874 -4.833953 -0.868743 14.018010 7.214446 -0.576318 -10.495473 -1.638869 -22.125216 14.281136 -0.458522 4.053184 31.848833 2.458100 10.636143 
-11.760000 45.919994 6.790001 0.175781 0.341797 -3.066350 7.216800 3.427730 3.964840 0.000000 0.000000 0.000000 0.000000 0.000000 0.000000 -6.318360 -1.416020 -0.703125 0.000000 0.000000 0.000000 0.000000 0.000000 0.000000 0.000000 0.000000 0.000000 61.147499 6.037880 -34.367802 -72.108597 59.578602 34.590900 19.183399 -0.636302 -30.265200 0.000000 0.000000 0.000000 -49.337399 9.203320 -53.992500 80.056396 -47.737999 27.123301 -35.834301 -9.482650 -43.830700 -22.589148 -0.908311 3.875364 19.952990 -4.631705 -2.869740 15.519427 7.728619 -1.641713 -9.290484 -2.535561 -14.038730 14.436556 -1.402670 4.600949 26.613201 9.635717 9.579557 
